# xmcd
#
# Track frame offsets: 
#        150
#        19812
#        41375
#        56737
#        75600
#        91338
#        115978
#        137958
#        153775
#        175327
#        199258
#        221412
#        246265
#        270034
#        286239
#        309504
#
# Disc length: 4409 seconds
#
# Revision: 0
# Processed by: cddbd v1.5.2PL0 Copyright (c) Steve Scherf et al.
# Submitted via: ExactAudioCopy v0.95b4
#
DISCID=d7113710
DTITLE=B.B.King - Star Profile
DYEAR=2000
DGENRE=Jazz
TTITLE0=Six Silver Strings
TTITLE1=Big Boss Man
TTITLE2=In The Midnight Hour
TTITLE3=Into The Night
TTITLE4=Blues Boys Tune
TTITLE5=Bad Case Of Love
TTITLE6=I'll Survive
TTITLE7=Ain't That Jast Like A Woman
TTITLE8=Early In The Morning
TTITLE9=Blues For TJ (with L.Carlton)
TTITLE10=No One Ever Tells You (with D.Schuur)
TTITLE11=Rock Me Baby (with E.Clapton)
TTITLE12=Stormy Monday Blues
TTITLE13=Birthday Booge
TTITLE14=Let The Good Times Roll
TTITLE15=Freedom
EXTD=
EXTT0=
EXTT1=
EXTT2=
EXTT3=
EXTT4=
EXTT5=
EXTT6=
EXTT7=
EXTT8=
EXTT9=
EXTT10=
EXTT11=
EXTT12=
EXTT13=
EXTT14=
EXTT15=
PLAYORDER=
